<svg width="24" height="24" viewBox="0 0 24 24" fill="none" xmlns="http://www.w3.org/2000/svg">
<path d="M9.96973 4.71967C10.2626 4.42678 10.7374 4.42678 11.0303 4.71967C11.3231 5.01257 11.3231 5.48735 11.0303 5.78022L5.56055 11.2499H20.25C20.6642 11.2499 21 11.5857 21 11.9999C20.9999 12.4141 20.6642 12.7499 20.25 12.7499H5.56055L11.0303 18.2197L11.082 18.2763C11.3223 18.5709 11.3049 19.0056 11.0303 19.2802C10.7557 19.5547 10.3209 19.5722 10.0264 19.332L9.96973 19.2802L3.21973 12.5302C3.18773 12.4982 3.15977 12.4635 3.13477 12.4277C3.10404 12.3836 3.07743 12.3364 3.05664 12.2861C3.0359 12.2358 3.02106 12.1837 3.01172 12.1308C3.00423 12.0883 3.00001 12.0446 3 11.9999C3 11.9547 3.00403 11.9102 3.01172 11.8671C3.02081 11.8163 3.03506 11.7662 3.05469 11.7177L3.05859 11.708C3.07937 11.6588 3.10545 11.6124 3.13574 11.5693C3.16035 11.5343 3.18843 11.501 3.21973 11.4697L9.96973 4.71967Z" fill="black"/>
</svg>
