<svg width="24" height="24" viewBox="0 0 24 24" fill="none" xmlns="http://www.w3.org/2000/svg">
<path d="M12.0253 3.00098C12.0322 3.00121 12.039 3.00153 12.0458 3.00195C12.0845 3.00429 12.1223 3.0096 12.1591 3.01758C12.1924 3.0248 12.2245 3.03607 12.2568 3.04785C12.2693 3.05242 12.2827 3.05437 12.2949 3.05957C12.314 3.06772 12.3311 3.08004 12.3496 3.08984C12.3734 3.10248 12.3977 3.11387 12.4199 3.12891C12.4587 3.15523 12.4958 3.18534 12.5302 3.21973L19.2802 9.96973L19.332 10.0264C19.5722 10.3209 19.5548 10.7557 19.2802 11.0303C19.0056 11.3049 18.5709 11.3223 18.2763 11.082L18.2197 11.0303L12.7499 5.56055V20.25C12.7499 20.6642 12.4141 21 11.9999 21C11.5857 21 11.2499 20.6642 11.2499 20.25V5.56055L5.78022 11.0303C5.48734 11.3232 5.01257 11.3231 4.71967 11.0303C4.42678 10.7374 4.42678 10.2626 4.71967 9.96973L11.4697 3.21973L11.5263 3.16797C11.5365 3.15965 11.548 3.15321 11.5585 3.14551C11.5741 3.13414 11.59 3.12345 11.6064 3.11328C11.6303 3.09849 11.6546 3.08509 11.6796 3.07324C11.6978 3.06463 11.7164 3.05697 11.7353 3.0498C11.7629 3.03942 11.7909 3.03144 11.8193 3.02441C11.8393 3.01944 11.8592 3.01309 11.8798 3.00977C11.8909 3.00799 11.9019 3.00616 11.913 3.00488C11.9415 3.0016 11.9706 3 11.9999 3C12.0084 3 12.0169 3.00069 12.0253 3.00098Z" fill="currentColor"/>
</svg>
