<svg width="24" height="24" viewBox="0 0 24 24" fill="none" xmlns="http://www.w3.org/2000/svg">
<path d="M11.9999 3C12.4141 3.00004 12.7499 3.33581 12.7499 3.75V18.4395L18.2197 12.9697C18.5126 12.6769 18.9873 12.6768 19.2802 12.9697C19.5731 13.2626 19.5731 13.7374 19.2802 14.0303L12.5302 20.7803C12.4983 20.8121 12.4634 20.8393 12.4277 20.8643C12.3835 20.8951 12.3364 20.9215 12.2861 20.9424C12.254 20.9556 12.2207 20.9641 12.1874 20.9727C12.1743 20.9761 12.1618 20.9817 12.1484 20.9844C12.1425 20.9855 12.1367 20.9863 12.1308 20.9873C12.0882 20.9948 12.0447 21 11.9999 21C11.9546 21 11.9103 20.995 11.8671 20.9873C11.8616 20.9863 11.856 20.9855 11.8505 20.9844C11.8371 20.9817 11.8246 20.9761 11.8115 20.9727C11.7782 20.964 11.7449 20.9557 11.7128 20.9424C11.6837 20.9303 11.657 20.914 11.6298 20.8984C11.5731 20.866 11.5181 20.8287 11.4697 20.7803L4.71967 14.0303C4.42678 13.7374 4.42678 13.2626 4.71967 12.9697C5.01257 12.6769 5.48734 12.6768 5.78022 12.9697L11.2499 18.4395V3.75C11.2499 3.33579 11.5857 3 11.9999 3Z" fill="currentColor"/>
</svg>
