<svg width="24" height="24" viewBox="0 0 24 24" fill="none" xmlns="http://www.w3.org/2000/svg">
<path d="M12.9697 4.71979C13.2626 4.4269 13.7374 4.4269 14.0303 4.71979L20.7803 11.4698C20.8287 11.5182 20.866 11.5733 20.8984 11.6299C20.914 11.6571 20.9303 11.6838 20.9424 11.713C20.9631 11.763 20.9779 11.8147 20.9873 11.8673C20.995 11.9104 21 11.9547 21 12.0001C21 12.0448 20.9948 12.0884 20.9873 12.1309C20.9779 12.1839 20.9632 12.2359 20.9424 12.2862C20.9215 12.3366 20.8951 12.3837 20.8643 12.4278C20.8393 12.4635 20.8121 12.4985 20.7803 12.5303L14.0303 19.2803C13.7374 19.5732 13.2626 19.5732 12.9697 19.2803C12.6768 18.9875 12.6769 18.5127 12.9697 18.2198L18.4395 12.7501H3.75C3.33581 12.7501 3.00004 12.4142 3 12.0001C3 11.5859 3.33579 11.2501 3.75 11.2501H18.4395L12.9697 5.78034C12.6768 5.48746 12.6769 5.01269 12.9697 4.71979Z" fill="currentColor"/>
</svg>
