<svg width="24" height="24" viewBox="0 0 24 24" fill="none" xmlns="http://www.w3.org/2000/svg">
<path d="M10.2119 3.1797C11.9456 2.82847 13.7447 2.99496 15.3838 3.66017C17.0227 4.32533 18.4292 5.45907 19.4277 6.91896C20.4262 8.37901 20.9725 10.1015 20.998 11.8701C21.0235 13.6388 20.5273 15.376 19.5713 16.8643C18.6153 18.3524 17.242 19.5261 15.623 20.2383C14.0039 20.9505 12.2099 21.1703 10.4668 20.8692C8.72381 20.568 7.10867 19.759 5.82227 18.5449C5.5211 18.2607 5.50694 17.7866 5.79102 17.4854C6.0753 17.1841 6.55032 17.1699 6.85156 17.4541C7.9236 18.4658 9.2701 19.1397 10.7227 19.3906C12.1751 19.6415 13.6693 19.4587 15.0186 18.8653C16.3679 18.2718 17.5129 17.2939 18.3096 16.0537C19.1062 14.8135 19.5193 13.3655 19.498 11.8916C19.4767 10.4179 19.0214 8.98325 18.1895 7.76662C17.3573 6.54987 16.1852 5.60514 14.8193 5.0508C13.4534 4.49646 11.9545 4.35674 10.5098 4.64943C9.06507 4.94214 7.73869 5.65409 6.69629 6.69631C6.6885 6.70408 6.67999 6.71134 6.67188 6.71877L4.17969 9.00002H6.75C7.16421 9.00002 7.5 9.3358 7.5 9.75002C7.49987 10.1641 7.16413 10.5 6.75 10.5H2.25C2.18852 10.5 2.12945 10.4896 2.07227 10.4756C2.04641 10.4693 2.02127 10.4612 1.99609 10.4522C1.97835 10.4457 1.96045 10.4403 1.94336 10.4326C1.91669 10.4207 1.89157 10.4058 1.86621 10.3906C1.8501 10.381 1.83365 10.3722 1.81836 10.3613C1.79692 10.3462 1.7769 10.3292 1.75684 10.3115C1.74052 10.2972 1.724 10.2833 1.70898 10.2676C1.70502 10.2635 1.70018 10.2601 1.69629 10.2559C1.67311 10.2305 1.65284 10.2033 1.63379 10.1758C1.62993 10.1702 1.62578 10.1649 1.62207 10.1592C1.60758 10.137 1.59685 10.1131 1.58496 10.0899C1.57315 10.0668 1.56118 10.0439 1.55176 10.0195C1.54234 9.99516 1.53509 9.97036 1.52832 9.94533C1.52205 9.92212 1.51479 9.89906 1.51074 9.87502C1.50915 9.86561 1.50806 9.85615 1.50684 9.8467C1.50275 9.81502 1.50001 9.7828 1.5 9.75002V5.25002C1.5 4.8358 1.83579 4.50002 2.25 4.50002C2.66421 4.50002 3 4.8358 3 5.25002V8.04591L5.65918 5.61232C6.90647 4.37436 8.48909 3.52878 10.2119 3.1797Z" fill="currentColor"/>
</svg>
