<svg width="24" height="24" viewBox="0 0 24 24" fill="none" xmlns="http://www.w3.org/2000/svg">
<path d="M12 2.25C13.989 2.25 15.8972 3.03988 17.3037 4.44629C18.7102 5.85281 19.5 7.76088 19.5 9.75C19.5 13.0257 20.2644 15.5807 20.7959 16.499L20.7969 16.5C20.9283 16.7276 20.9978 16.9862 20.998 17.249C20.9982 17.5118 20.9288 17.7703 20.7979 17.998C20.6668 18.2258 20.4782 18.4149 20.251 18.5469C20.0237 18.6789 19.7658 18.7491 19.5029 18.75H15.6738C15.5278 19.465 15.1751 20.1276 14.6514 20.6514C13.9481 21.3546 12.9946 21.75 12 21.75C11.0054 21.75 10.0519 21.3546 9.34863 20.6514C8.82488 20.1276 8.47224 19.465 8.32617 18.75H4.4961C4.2336 18.7484 3.97577 18.6782 3.74902 18.5459C3.52225 18.4136 3.33371 18.2239 3.20313 17.9961C3.07267 17.7685 3.00454 17.5104 3.00488 17.248C3.00528 16.9855 3.07478 16.7274 3.20606 16.5L3.30762 16.3086C3.82884 15.2594 4.5 12.8207 4.5 9.75C4.5 7.76088 5.29074 5.85281 6.69727 4.44629C8.10367 3.04004 10.0112 2.2501 12 2.25ZM9.88184 18.75C9.99273 19.063 10.1699 19.3515 10.4092 19.5908C10.8311 20.0128 11.4033 20.25 12 20.25C12.5967 20.25 13.1689 20.0128 13.5908 19.5908C13.8301 19.3515 14.0073 19.063 14.1182 18.75H9.88184ZM12 3.75C10.4088 3.7501 8.88294 4.38268 7.75781 5.50781C6.63271 6.63301 6 8.15879 6 9.75C6 12.9742 5.30538 15.6734 4.6377 17.0029L4.50488 17.25H19.4971C18.7912 16.0299 18 13.1892 18 9.75C18 8.15884 17.3682 6.633 16.2432 5.50781C15.1179 4.38259 13.5913 3.75 12 3.75Z" fill="black"/>
</svg>
