<svg width="20" height="20" viewBox="0 0 20 20" fill="none" xmlns="http://www.w3.org/2000/svg">
<g clip-path="url(#clip0_12178_69954)">
<path d="M12.7992 16.0625C12.7992 17.609 11.5457 18.8625 9.99922 18.8625C8.45272 18.8625 7.19922 17.609 7.19922 16.0625H12.7992Z" fill="#FF9E00"/>
<path d="M8.3125 2.82522C8.3125 1.89272 9.0685 1.13672 10.001 1.13672C10.9335 1.13672 11.6895 1.89272 11.6895 2.82522H8.313H8.3125Z" fill="#FF9E00"/>
<path d="M3.05228 9.40894C3.05228 5.41844 6.41628 2.21394 10.4628 2.47594C14.1558 2.71494 16.9483 5.94644 16.9483 9.64694V12.6864L18.1303 14.7334C18.4708 15.3234 18.0453 16.0609 17.3638 16.0609H2.63628C1.95528 16.0609 1.52928 15.3234 1.86978 14.7334L3.05178 12.6864L3.05228 9.40894Z" fill="#FFC000"/>
</g>
<defs>
<clipPath id="clip0_12178_69954">
<rect width="20" height="20" fill="white"/>
</clipPath>
</defs>
</svg>
