<svg width="24" height="24" viewBox="0 0 24 24" fill="none" xmlns="http://www.w3.org/2000/svg">
<path d="M6.08301 20.124L6.1582 20.1396L6.36133 20.1875C6.56733 20.2285 6.78083 20.25 7 20.25H7.83301C8.24722 20.25 8.58301 20.5858 8.58301 21C8.58301 21.4142 8.24722 21.75 7.83301 21.75H7C6.57586 21.75 6.16344 21.6939 5.77051 21.5889C5.37048 21.4818 5.13329 21.071 5.24023 20.6709C5.34058 20.2958 5.70776 20.0634 6.08301 20.124ZM12.833 20.25C13.2472 20.25 13.583 20.5858 13.583 21C13.583 21.4142 13.2472 21.75 12.833 21.75H11.167C10.7528 21.75 10.417 21.4142 10.417 21C10.417 20.5858 10.7528 20.25 11.167 20.25H12.833ZM17.8418 20.1396C18.2419 20.0327 18.6527 20.2708 18.7598 20.6709C18.8667 21.071 18.6295 21.4818 18.2295 21.5889L17.9307 21.6582C17.6292 21.7182 17.318 21.75 17 21.75H16.167C15.7528 21.75 15.417 21.4142 15.417 21C15.417 20.5858 15.7528 20.25 16.167 20.25H17C17.2922 20.25 17.5741 20.2112 17.8418 20.1396ZM3 15.417C3.41421 15.417 3.75 15.7528 3.75 16.167V17C3.75 17.2192 3.77151 17.4327 3.8125 17.6387L3.86035 17.8418L3.87598 17.917C3.93656 18.2922 3.70418 18.6594 3.3291 18.7598C2.95407 18.86 2.56946 18.658 2.43457 18.3027L2.41113 18.2295L2.3418 17.9307C2.28185 17.6292 2.25 17.318 2.25 17V16.167C2.25 15.7528 2.58579 15.417 3 15.417ZM21 15.417C21.4142 15.417 21.75 15.7528 21.75 16.167V17C21.75 17.4241 21.6939 17.8366 21.5889 18.2295L21.5654 18.3027C21.4305 18.658 21.0459 18.86 20.6709 18.7598C20.2708 18.6527 20.0327 18.2419 20.1396 17.8418C20.2112 17.5741 20.25 17.2922 20.25 17V16.167C20.25 15.7528 20.5858 15.417 21 15.417ZM3 10.417C3.41421 10.417 3.75 10.7528 3.75 11.167V12.833C3.75 13.2472 3.41421 13.583 3 13.583C2.58579 13.583 2.25 13.2472 2.25 12.833V11.167C2.25 10.7528 2.58579 10.417 3 10.417ZM21 10.417C21.4142 10.417 21.75 10.7528 21.75 11.167V12.833C21.75 13.2472 21.4142 13.583 21 13.583C20.5858 13.583 20.25 13.2472 20.25 12.833V11.167C20.25 10.7528 20.5858 10.417 21 10.417ZM2.41113 5.77051C2.51819 5.37048 2.92901 5.13329 3.3291 5.24023C3.72917 5.34727 3.9673 5.75809 3.86035 6.1582L3.8125 6.36133C3.77151 6.56733 3.75 6.78083 3.75 7V7.83301C3.75 8.24722 3.41421 8.58301 3 8.58301C2.58579 8.58301 2.25 8.24722 2.25 7.83301V7C2.25 6.57586 2.3061 6.16344 2.41113 5.77051ZM20.6709 5.24023C21.071 5.13329 21.4818 5.37048 21.5889 5.77051C21.6939 6.16344 21.75 6.57586 21.75 7V7.83301C21.75 8.24722 21.4142 8.58301 21 8.58301C20.5858 8.58301 20.25 8.24722 20.25 7.83301V7C20.25 6.78083 20.2285 6.56733 20.1875 6.36133L20.1396 6.1582L20.124 6.08301C20.0634 5.70776 20.2958 5.34058 20.6709 5.24023ZM7.83301 2.25C8.24722 2.25 8.58301 2.58579 8.58301 3C8.58301 3.41421 8.24722 3.75 7.83301 3.75H7C6.70784 3.75 6.4259 3.7888 6.1582 3.86035L6.08301 3.87598C5.70776 3.93656 5.34058 3.70418 5.24023 3.3291C5.13329 2.92901 5.37048 2.5182 5.77051 2.41113C6.16344 2.3061 6.57586 2.25 7 2.25H7.83301ZM17 2.25C17.318 2.25 17.6292 2.28185 17.9307 2.3418L18.2295 2.41113L18.3027 2.43457C18.658 2.56946 18.86 2.95407 18.7598 3.3291C18.6594 3.70418 18.2922 3.93656 17.917 3.87598L17.8418 3.86035L17.6387 3.8125C17.4327 3.77151 17.2192 3.75 17 3.75H16.167C15.7528 3.75 15.417 3.41421 15.417 3C15.417 2.58579 15.7528 2.25 16.167 2.25H17ZM12.833 2.25C13.2472 2.25 13.583 2.58579 13.583 3C13.583 3.41421 13.2472 3.75 12.833 3.75H11.167C10.7528 3.75 10.417 3.41421 10.417 3C10.417 2.58579 10.7528 2.25 11.167 2.25H12.833Z" fill="currentColor"/>
</svg>
