<svg width="20" height="20" viewBox="0 0 20 20" fill="none" xmlns="http://www.w3.org/2000/svg">
<g clip-path="url(#clip0_12178_71593)">
<path fill-rule="evenodd" clip-rule="evenodd" d="M2.18799 2.74V17.26C2.18799 17.807 2.63099 18.25 3.17799 18.25H11.263L16.213 13.3V2.74C16.213 2.193 15.77 1.75 15.223 1.75H3.17799C2.63099 1.75 2.18799 2.193 2.18799 2.74Z" fill="#E5E9EE"/>
<path fill-rule="evenodd" clip-rule="evenodd" d="M12.2527 13.3008H16.2127L11.2627 18.2508V14.2908C11.2627 13.7438 11.7057 13.3008 12.2527 13.3008Z" fill="#C0C7D1"/>
<path d="M16.2125 4.47266H2.1875V4.95816H16.2125V4.47266Z" fill="#D0D5DA"/>
<path d="M16.2125 6.76562H2.1875V7.25113H16.2125V6.76562Z" fill="#D0D5DA"/>
<path d="M16.2125 9.05859H2.1875V9.54409H16.2125V9.05859Z" fill="#D0D5DA"/>
<path d="M16.2125 11.3516H2.1875V11.8371H16.2125V11.3516Z" fill="#D0D5DA"/>
<path d="M16.2129 3.21484H17.3269C17.5949 3.21484 17.8124 3.43234 17.8124 3.70034V6.27434C17.8124 6.54234 17.5949 6.75984 17.3269 6.75984H16.2129V3.21534V3.21484Z" fill="#4A90E2"/>
<path d="M17.3269 11.7593H16.2129V8.21484H17.3269C17.5949 8.21484 17.8124 8.43234 17.8124 8.70034V11.2743C17.8124 11.5423 17.5949 11.7598 17.3269 11.7598V11.7593Z" fill="#FFC100"/>
</g>
<defs>
<clipPath id="clip0_12178_71593">
<rect width="20" height="20" fill="white"/>
</clipPath>
</defs>
</svg>
