<svg width="24" height="24" viewBox="0 0 24 24" fill="none" xmlns="http://www.w3.org/2000/svg">
<path d="M17.25 3C17.6478 3 18.0292 3.15815 18.3105 3.43945C18.5919 3.72076 18.75 4.10218 18.75 4.5V21C18.75 21.2726 18.6017 21.5241 18.3633 21.6562C18.1249 21.7882 17.8336 21.7802 17.6025 21.6357L12 18.1338L6.39746 21.6357C6.16637 21.7802 5.87512 21.7882 5.63672 21.6562C5.39825 21.5241 5.25 21.2726 5.25 21V4.5C5.25 4.10217 5.40815 3.72076 5.68945 3.43945C5.97076 3.15815 6.35217 3 6.75 3H17.25ZM6.75 19.6465L11.6025 16.6143L11.6963 16.5645C11.9217 16.4646 12.1846 16.4812 12.3975 16.6143L17.25 19.6465V4.5H6.75V19.6465Z" fill="currentColor"/>
</svg>
