<svg width="20" height="20" viewBox="0 0 20 20" fill="none" xmlns="http://www.w3.org/2000/svg">
<g clip-path="url(#clip0_12178_69963)">
<path d="M4.36415 10.0723H15.6362C16.0137 10.0723 16.3192 10.3783 16.3192 10.7553V17.3168C16.3192 17.6943 16.0132 17.9998 15.6362 17.9998H4.36415C3.98665 17.9998 3.68115 17.6938 3.68115 17.3168V10.7553C3.68115 10.3778 3.98715 10.0723 4.36415 10.0723Z" fill="#424F57"/>
<path d="M16.4228 8.45508H3.57778C3.28673 8.45508 3.05078 8.69102 3.05078 8.98208V11.2121C3.05078 11.5031 3.28673 11.7391 3.57778 11.7391H16.4228C16.7138 11.7391 16.9498 11.5031 16.9498 11.2121V8.98208C16.9498 8.69102 16.7138 8.45508 16.4228 8.45508Z" fill="#424F57"/>
<path d="M5.39884 2H14.6018C14.9453 2 15.2233 2.2785 15.2233 2.6215V9.166C15.2233 9.5095 14.9448 9.7875 14.6018 9.7875H5.39884C5.05534 9.7875 4.77734 9.509 4.77734 9.166V2.6215C4.77734 2.278 5.05584 2 5.39884 2Z" fill="#E5E9EE"/>
<path d="M7.82465 5.73133C8.37555 5.73133 8.82215 5.28473 8.82215 4.73383C8.82215 4.18292 8.37555 3.73633 7.82465 3.73633C7.27374 3.73633 6.82715 4.18292 6.82715 4.73383C6.82715 5.28473 7.27374 5.73133 7.82465 5.73133Z" fill="#64A7FF"/>
<path d="M7.82457 6.16406C9.18957 6.16406 9.71457 7.10906 9.71457 7.52906C9.71457 7.94906 8.61207 8.05406 7.82457 8.05406C7.03707 8.05406 5.93457 7.94906 5.93457 7.52906C5.93457 7.05656 6.45957 6.16406 7.82457 6.16406Z" fill="#64A7FF"/>
<path d="M13.8343 4.76986H10.8283C10.6518 4.76986 10.5088 4.62686 10.5088 4.45036C10.5088 4.27386 10.6518 4.13086 10.8283 4.13086H13.8343C14.0108 4.13086 14.1538 4.27386 14.1538 4.45036C14.1538 4.62686 14.0108 4.76986 13.8343 4.76986Z" fill="#D0D5DA"/>
<path d="M13.8341 6.21322H11.7961C11.6196 6.21322 11.4766 6.07022 11.4766 5.89372C11.4766 5.71722 11.6196 5.57422 11.7961 5.57422H13.8341C14.0106 5.57422 14.1536 5.71722 14.1536 5.89372C14.1536 6.07022 14.0106 6.21322 13.8341 6.21322Z" fill="#D0D5DA"/>
<path d="M13.8341 7.65462H11.7961C11.6196 7.65462 11.4766 7.51162 11.4766 7.33512C11.4766 7.15862 11.6196 7.01562 11.7961 7.01562H13.8341C14.0106 7.01562 14.1536 7.15862 14.1536 7.33512C14.1536 7.51162 14.0106 7.65462 13.8341 7.65462Z" fill="#D0D5DA"/>
<path d="M5.39884 10.4062H14.6018C14.9453 10.4062 15.2233 10.6848 15.2233 11.0278V15.9917C15.2233 16.3352 14.9448 16.6133 14.6018 16.6133H5.39884C5.05534 16.6133 4.77734 16.3347 4.77734 15.9917V11.0278C4.77734 10.6843 5.05584 10.4062 5.39884 10.4062Z" fill="#AFB7C0"/>
<path d="M5.39884 10.4062H14.6018C14.9453 10.4062 15.2233 10.6848 15.2233 11.0278V14.9377C15.2233 15.2812 14.9448 15.5592 14.6018 15.5592H5.39884C5.05534 15.5592 4.77734 15.2807 4.77734 14.9377V11.0278C4.77734 10.6843 5.05584 10.4062 5.39884 10.4062Z" fill="#E5E9EE"/>
<path d="M6.97117 11.13C6.75267 11.13 6.57617 10.953 6.57617 10.735V9.4575C6.57617 9.239 6.75317 9.0625 6.97117 9.0625C7.18917 9.0625 7.36617 9.2395 7.36617 9.4575V10.735C7.36617 10.9535 7.18917 11.13 6.97117 11.13Z" fill="#8595AA"/>
<path d="M13.0283 11.13C12.8098 11.13 12.6333 10.953 12.6333 10.735V9.4575C12.6333 9.239 12.8103 9.0625 13.0283 9.0625C13.2463 9.0625 13.4233 9.2395 13.4233 9.4575V10.735C13.4233 10.9535 13.2463 11.13 13.0283 11.13Z" fill="#8595AA"/>
</g>
<defs>
<clipPath id="clip0_12178_69963">
<rect width="20" height="20" fill="white"/>
</clipPath>
</defs>
</svg>
