<svg width="24" height="24" viewBox="0 0 24 24" fill="none" xmlns="http://www.w3.org/2000/svg">
<path d="M4.71973 3.96979C5.01262 3.67689 5.48738 3.67689 5.78027 3.96979L13.2803 11.4698C13.5731 11.7627 13.5731 12.2375 13.2803 12.5303L5.78027 20.0303C5.4874 20.3232 5.01262 20.3232 4.71973 20.0303C4.42683 19.7374 4.42683 19.2627 4.71973 18.9698L11.6895 12.0001L4.71973 5.03033C4.42683 4.73744 4.42683 4.26268 4.71973 3.96979ZM12.2197 3.96979C12.5126 3.67689 12.9874 3.67689 13.2803 3.96979L20.7803 11.4698C21.0731 11.7627 21.0731 12.2375 20.7803 12.5303L13.2803 20.0303C12.9874 20.3232 12.5126 20.3232 12.2197 20.0303C11.9268 19.7374 11.9268 19.2627 12.2197 18.9698L19.1895 12.0001L12.2197 5.03033C11.9268 4.73744 11.9268 4.26268 12.2197 3.96979Z" fill="currentColor"/>
</svg>
