<svg width="24" height="24" viewBox="0 0 24 24" fill="none" xmlns="http://www.w3.org/2000/svg">
<path d="M12.6367 2.27247C14.9979 2.42661 17.2232 3.43428 18.8964 5.10743C20.5696 6.78059 21.5772 9.00606 21.7314 11.3672C21.8854 13.7283 21.1747 16.065 19.7334 17.9414C18.2919 19.8178 16.2175 21.1066 13.8964 21.5664C11.6879 22.0039 9.40083 21.6605 7.41988 20.6055L4.22554 21.6719C3.96125 21.76 3.67736 21.773 3.40621 21.709C3.13514 21.645 2.88733 21.5065 2.69039 21.3096C2.49351 21.1126 2.35496 20.8648 2.29097 20.5938C2.22706 20.3227 2.23997 20.0386 2.32808 19.7744V19.7734L3.39644 16.582C2.34241 14.6017 2.00016 12.315 2.43746 10.1074C2.89732 7.78635 4.18597 5.71099 6.06246 4.26954C7.93889 2.82832 10.2757 2.1184 12.6367 2.27247ZM12.539 3.76954C10.5411 3.63915 8.56334 4.23936 6.97554 5.459C5.38792 6.67858 4.29833 8.43468 3.90914 10.3984C3.52008 12.3625 3.85842 14.4019 4.86128 16.1348C4.96888 16.3208 4.99182 16.5442 4.92378 16.7481L3.75093 20.2481L7.25582 19.0801L7.33394 19.0586C7.51553 19.0191 7.70658 19.0486 7.8691 19.1426C9.60194 20.1455 11.6405 20.4837 13.6044 20.0947C15.5685 19.7057 17.3242 18.6152 18.5439 17.0274C19.7634 15.4396 20.3647 13.4627 20.2343 11.4649C20.1038 9.46696 19.2507 7.58372 17.8349 6.16798C16.4192 4.7525 14.5368 3.89995 12.539 3.76954ZM7.87496 10.875C8.4962 10.875 8.99985 11.3788 8.99996 12C8.99996 12.6213 8.49627 13.125 7.87496 13.125C7.25363 13.125 6.74996 12.6213 6.74996 12C6.75006 11.3788 7.2537 10.875 7.87496 10.875ZM12 10.875C12.6212 10.875 13.1248 11.3788 13.125 12C13.125 12.6213 12.6213 13.125 12 13.125C11.3786 13.125 10.875 12.6213 10.875 12C10.8751 11.3788 11.3787 10.875 12 10.875ZM16.125 10.875C16.7462 10.875 17.2498 11.3788 17.25 12C17.25 12.6213 16.7463 13.125 16.125 13.125C15.5036 13.125 15 12.6213 15 12C15.0001 11.3788 15.5037 10.875 16.125 10.875Z" fill="currentColor"/>
</svg>
