<svg width="24" height="24" viewBox="0 0 24 24" fill="none" xmlns="http://www.w3.org/2000/svg">
<path d="M12 2.25C17.3848 2.25 21.75 6.61522 21.75 12C21.75 17.3848 17.3848 21.75 12 21.75C6.61522 21.75 2.25 17.3848 2.25 12C2.25 6.61522 6.61522 2.25 12 2.25ZM12 3.75C7.44365 3.75 3.75 7.44365 3.75 12C3.75 16.5563 7.44365 20.25 12 20.25C16.5563 20.25 20.25 16.5563 20.25 12C20.25 7.44365 16.5563 3.75 12 3.75ZM15.2197 9.21973C15.5126 8.92683 15.9874 8.92683 16.2803 9.21973C16.5732 9.51262 16.5732 9.98738 16.2803 10.2803L11.0303 15.5303C10.7374 15.8232 10.2626 15.8232 9.96973 15.5303L7.71973 13.2803C7.42683 12.9874 7.42683 12.5126 7.71973 12.2197C7.99433 11.9451 8.42905 11.9277 8.72363 12.168L8.78027 12.2197L10.5 13.9395L15.2197 9.21973Z" fill="currentColor"/>
</svg>
