<svg width="24" height="24" viewBox="0 0 24 24" fill="none" xmlns="http://www.w3.org/2000/svg">
<path d="M12 3C16.9706 3 21 7.02944 21 12C21 16.9706 16.9706 21 12 21C7.02944 21 3 16.9706 3 12C3 7.02944 7.02944 3 12 3ZM16.2803 9.21973C15.9874 8.92683 15.5126 8.92683 15.2197 9.21973L10.5 13.9395L8.78027 12.2197L8.72363 12.168C8.42905 11.9277 7.99433 11.9451 7.71973 12.2197C7.42683 12.5126 7.42683 12.9874 7.71973 13.2803L9.96973 15.5303C10.2626 15.8232 10.7374 15.8232 11.0303 15.5303L16.2803 10.2803C16.5732 9.98738 16.5732 9.51262 16.2803 9.21973Z" fill="#22A04C"/>
</svg>
