<svg width="24" height="24" viewBox="0 0 24 24" fill="none" xmlns="http://www.w3.org/2000/svg">
<path d="M20.25 12.75C20.6642 12.75 21 13.0858 21 13.5V19.5C21 19.9142 20.6642 20.25 20.25 20.25H3.75C3.33579 20.25 3 19.9142 3 19.5V13.5C3 13.0858 3.33579 12.75 3.75 12.75C4.16421 12.75 4.5 13.0858 4.5 13.5V18.75H19.5V13.5C19.5 13.0858 19.8358 12.75 20.25 12.75ZM12 2.25C12.4142 2.25 12.75 2.58579 12.75 3V11.6895L15.2197 9.21973C15.5126 8.92683 15.9874 8.92683 16.2803 9.21973C16.5732 9.51262 16.5732 9.98738 16.2803 10.2803L12.5303 14.0303C12.4817 14.0789 12.4261 14.116 12.3691 14.1484C12.342 14.1639 12.3153 14.1803 12.2861 14.1924C12.2541 14.2056 12.2208 14.2141 12.1875 14.2227C12.1744 14.2261 12.1618 14.2317 12.1484 14.2344C12.1429 14.2355 12.1374 14.2363 12.1318 14.2373C12.089 14.2449 12.045 14.25 12 14.25C11.9546 14.25 11.9103 14.245 11.8672 14.2373C11.8617 14.2363 11.8561 14.2355 11.8506 14.2344C11.8372 14.2317 11.8246 14.2261 11.8115 14.2227C11.7783 14.214 11.7449 14.2057 11.7129 14.1924C11.6838 14.1803 11.657 14.164 11.6299 14.1484C11.5732 14.116 11.5181 14.0787 11.4697 14.0303L7.71973 10.2803C7.42683 9.98738 7.42683 9.51262 7.71973 9.21973C8.01262 8.92683 8.48738 8.92683 8.78027 9.21973L11.25 11.6895V3C11.25 2.58579 11.5858 2.25 12 2.25Z" fill="currentColor"/>
</svg>
