<svg width="20" height="20" viewBox="0 0 20 20" fill="none" xmlns="http://www.w3.org/2000/svg">
<g clip-path="url(#clip0_12178_71602)">
<path d="M16.492 3.9707H3.5085C2.72149 3.9707 2.0835 4.6087 2.0835 5.3957V12.5457C2.0835 13.3327 2.72149 13.9707 3.5085 13.9707H16.492C17.279 13.9707 17.917 13.3327 17.917 12.5457V5.3957C17.917 4.6087 17.279 3.9707 16.492 3.9707Z" fill="#D0D5DA"/>
<path fill-rule="evenodd" clip-rule="evenodd" d="M10.0835 3.97175H15.9765V3.03125C15.9765 2.47875 15.529 2.03125 14.9765 2.03125H11.0835C10.531 2.03125 10.0835 2.47875 10.0835 3.03125V3.97175Z" fill="#3182F6"/>
<path d="M16.492 5.4707H3.5085C2.72149 5.4707 2.0835 6.1087 2.0835 6.8957V14.0457C2.0835 14.8327 2.72149 15.4707 3.5085 15.4707H16.492C17.279 15.4707 17.917 14.8327 17.917 14.0457V6.8957C17.917 6.1087 17.279 5.4707 16.492 5.4707Z" fill="#E5E9EE"/>
<path fill-rule="evenodd" clip-rule="evenodd" d="M6.0835 5.47175H11.9765V4.53125C11.9765 3.97875 11.529 3.53125 10.9765 3.53125H7.0835C6.531 3.53125 6.0835 3.97875 6.0835 4.53125V5.47175Z" fill="#00BC79"/>
<path fill-rule="evenodd" clip-rule="evenodd" d="M2.0835 6.9707V16.0457C2.0835 16.8327 2.7215 17.4707 3.5085 17.4707H16.492C17.279 17.4707 17.917 16.8327 17.917 16.0457V8.3957C17.917 7.6087 17.279 6.9707 16.492 6.9707H2.0835Z" fill="#FFC33A"/>
<path fill-rule="evenodd" clip-rule="evenodd" d="M2.0835 6.97175H7.9765V6.03125C7.9765 5.47875 7.529 5.03125 6.9765 5.03125H3.0835C2.531 5.03125 2.0835 5.47875 2.0835 6.03125V6.97175Z" fill="#EC4452"/>
</g>
<defs>
<clipPath id="clip0_12178_71602">
<rect width="20" height="20" fill="white"/>
</clipPath>
</defs>
</svg>
