<svg width="24" height="24" viewBox="0 0 24 24" fill="none" xmlns="http://www.w3.org/2000/svg">
<path d="M12 4.5C15.9994 4.5 18.8049 6.30689 20.5928 8.09473C21.4845 8.98646 22.1277 9.87712 22.5488 10.5459C22.7597 10.8808 22.9157 11.1621 23.0205 11.3623C23.0729 11.4623 23.1134 11.542 23.1406 11.5986C23.1542 11.6269 23.1644 11.6498 23.1719 11.666C23.1756 11.674 23.1784 11.6806 23.1807 11.6855L23.1846 11.6934V11.6943C23.1826 11.6957 23.1455 11.7131 22.5 12C23.1455 12.2869 23.1826 12.3043 23.1846 12.3057V12.3066L23.1807 12.3145C23.1784 12.3194 23.1756 12.326 23.1719 12.334C23.1644 12.3502 23.1542 12.3731 23.1406 12.4014C23.1134 12.458 23.0729 12.5377 23.0205 12.6377C22.9157 12.8379 22.7597 13.1192 22.5488 13.4541C22.1277 14.1229 21.4845 15.0135 20.5928 15.9053C18.8049 17.6931 15.9994 19.5 12 19.5C8.00067 19.4999 5.19507 17.6931 3.40723 15.9053C2.51551 15.0135 1.87225 14.1229 1.45117 13.4541C1.24034 13.1192 1.08433 12.8378 0.979492 12.6377C0.927091 12.5377 0.88663 12.458 0.859375 12.4014C0.845753 12.3731 0.835622 12.3502 0.828125 12.334C0.824419 12.326 0.821556 12.3194 0.819336 12.3145L0.81543 12.3066V12.3057C0.815392 12.3052 0.824441 12.3002 1.5 12C0.824441 11.6998 0.815392 11.6948 0.81543 11.6943V11.6934L0.819336 11.6855C0.821556 11.6806 0.824419 11.674 0.828125 11.666C0.835622 11.6498 0.845753 11.6269 0.859375 11.5986C0.88663 11.542 0.927091 11.4623 0.979492 11.3623C1.08433 11.1622 1.24034 10.8808 1.45117 10.5459C1.87225 9.87713 2.51551 8.98646 3.40723 8.09473C5.19507 6.30689 8.00067 4.50006 12 4.5ZM12 6C8.49954 6.00006 6.05488 7.56817 4.46777 9.15527C3.67217 9.95089 3.09647 10.7479 2.7207 11.3447C2.55369 11.61 2.42709 11.8348 2.33887 12C2.42709 12.1652 2.55369 12.39 2.7207 12.6553C3.09647 13.2521 3.67217 14.0491 4.46777 14.8447C6.05488 16.4318 8.49954 17.9999 12 18C15.5005 18 17.9451 16.4318 19.5322 14.8447C20.3278 14.0491 20.9035 13.2521 21.2793 12.6553C21.4462 12.3902 21.5719 12.1652 21.6602 12C21.5719 11.8348 21.4462 11.6098 21.2793 11.3447C20.9035 10.7479 20.3278 9.95089 19.5322 9.15527C17.9451 7.56817 15.5005 6 12 6ZM12 7.5C14.4853 7.5 16.5 9.51472 16.5 12C16.5 14.4853 14.4853 16.5 12 16.5C9.5148 16.4999 7.5 14.4852 7.5 12C7.5 9.51478 9.5148 7.5001 12 7.5ZM12 9C10.3432 9.0001 9 10.3432 9 12C9 13.6568 10.3432 14.9999 12 15C13.6569 15 15 13.6569 15 12C15 10.3431 13.6569 9 12 9ZM1.5 12L0.814453 12.3047C0.728306 12.1108 0.728306 11.8892 0.814453 11.6953L1.5 12ZM23.1855 11.6953C23.2717 11.8892 23.2717 12.1108 23.1855 12.3047L22.5 12L23.1855 11.6953Z" fill="currentColor"/>
</svg>
