<svg width="24" height="24" viewBox="0 0 24 24" fill="none" xmlns="http://www.w3.org/2000/svg">
<path d="M3.99512 3.19531C4.28254 2.93402 4.71816 2.93717 5.00098 3.19141L5.05469 3.24512L10.0264 8.71387C10.0282 8.71588 10.0304 8.71768 10.0322 8.71973C10.034 8.72172 10.0353 8.72456 10.0371 8.72656L20.0547 19.7451C20.3332 20.0515 20.3111 20.526 20.0049 20.8047C19.7174 21.066 19.2818 21.0628 18.999 20.8086L18.9453 20.7549L16.8799 18.4824C15.3457 19.1631 13.6828 19.5114 12 19.499V19.5L11.998 19.499C11.9968 19.499 11.9954 19.5 11.9941 19.5V19.499C7.99798 19.4972 5.19422 17.6922 3.40723 15.9053C2.51578 15.0138 1.87224 14.1238 1.45117 13.4551C1.24047 13.1204 1.08436 12.8388 0.979492 12.6387C0.927122 12.5387 0.886648 12.458 0.859375 12.4014C0.845998 12.3736 0.835578 12.3511 0.828125 12.335C0.824449 12.327 0.821551 12.3194 0.819336 12.3145L0.81543 12.3066C0.815268 12.3063 0.814836 12.3045 1.5 12L0.814453 12.3047C0.728454 12.1109 0.728446 11.8891 0.814453 11.6953L0.81543 11.6943V11.6934C0.815858 11.6924 0.816753 11.6908 0.817383 11.6895C0.818689 11.6866 0.820212 11.6823 0.822266 11.6777C0.826544 11.6684 0.833313 11.6556 0.84082 11.6396C0.855982 11.6075 0.877783 11.5618 0.90625 11.5049C0.963353 11.3908 1.04757 11.229 1.16016 11.0312C1.38527 10.6358 1.72573 10.0917 2.19043 9.48535C2.98309 8.45112 4.15173 7.2194 5.74902 6.23828L3.94531 4.25488L3.89648 4.19531C3.67047 3.88976 3.70808 3.45661 3.99512 3.19531ZM6.77832 7.37109C5.25439 8.25116 4.13678 9.4112 3.38086 10.3975C2.96418 10.9412 2.661 11.4272 2.46387 11.7734C2.41569 11.8581 2.37535 11.9354 2.33984 12.002C2.42802 12.167 2.55433 12.391 2.7207 12.6553C3.09646 13.252 3.67226 14.0492 4.46777 14.8447C6.0549 16.4318 8.49959 18 12 18H12.0059C13.3089 18.0102 14.5988 17.7724 15.8086 17.3047L14.4287 15.7861C13.6475 16.2874 12.7255 16.5398 11.7861 16.4951C10.5942 16.4383 9.4737 15.9101 8.6709 15.0273C7.86813 14.1442 7.44814 12.9773 7.50488 11.7852C7.54976 10.846 7.88791 9.95165 8.46094 9.22168L6.77832 7.37109ZM11.999 4.50098C15.9983 4.50098 18.8039 6.30691 20.5918 8.09473C21.4836 8.98649 22.1268 9.87711 22.5479 10.5459C22.7587 10.8809 22.9156 11.1621 23.0205 11.3623C23.0728 11.4622 23.1124 11.5421 23.1396 11.5986C23.1533 11.627 23.1634 11.6498 23.1709 11.666C23.1747 11.6741 23.1784 11.6806 23.1807 11.6855L23.1836 11.6943H23.1846C23.1837 11.6952 23.1575 11.7073 22.499 12L23.1846 11.6953C23.26 11.8649 23.2694 12.0556 23.2129 12.2305L23.1846 12.3047L23.1826 12.3086C23.1818 12.3105 23.181 12.3136 23.1797 12.3164C23.1771 12.3221 23.1733 12.3295 23.1689 12.3389C23.1601 12.3579 23.148 12.3846 23.1318 12.418C23.0994 12.4848 23.052 12.5795 22.9893 12.6973C22.8638 12.9329 22.6756 13.2623 22.4219 13.6504C21.9153 14.4253 21.1386 15.4433 20.0566 16.4121L19.9971 16.46C19.6898 16.6836 19.2571 16.6427 18.998 16.3535C18.7218 16.0449 18.7481 15.5703 19.0566 15.2939L19.4043 14.9697C20.1878 14.2093 20.7699 13.4375 21.167 12.8301C21.3904 12.4884 21.5531 12.2006 21.6602 12C21.5719 11.8347 21.4453 11.61 21.2783 11.3447C20.9025 10.7479 20.3268 9.95086 19.5312 9.15527C17.9441 7.5682 15.4995 6 11.999 6H11.998C11.3899 5.99918 10.7827 6.04848 10.1826 6.14746C9.77395 6.21484 9.38773 5.93796 9.32031 5.5293C9.2531 5.12077 9.52997 4.73543 9.93848 4.66797C10.6195 4.55562 11.3088 4.50011 11.999 4.50098ZM9.49316 10.3574C9.20199 10.8018 9.02867 11.318 9.00293 11.8574C8.96524 12.6519 9.24535 13.429 9.78027 14.0176C10.3155 14.6063 11.0627 14.9582 11.8574 14.9961C12.397 15.0218 12.9265 14.8978 13.3965 14.6504L9.49316 10.3574ZM11.9688 8.17578C12.0467 7.76915 12.4391 7.50246 12.8457 7.58008C13.8023 7.76327 14.6739 8.25199 15.3291 8.97266C15.9023 9.6032 16.2831 10.3815 16.4307 11.2158L16.4795 11.5771L16.4834 11.6533C16.4808 12.0335 16.1904 12.357 15.8037 12.3936C15.4172 12.43 15.0719 12.1667 14.998 11.7939L14.9863 11.7178L14.9541 11.4775C14.8558 10.9212 14.602 10.4019 14.2197 9.98145C13.783 9.50107 13.2021 9.17492 12.5645 9.05273C12.1578 8.97482 11.8911 8.58245 11.9688 8.17578Z" fill="currentColor"/>
</svg>
