<svg width="20" height="20" viewBox="0 0 20 20" fill="none" xmlns="http://www.w3.org/2000/svg">
<g clip-path="url(#clip0_12178_69968)">
<path d="M3.94336 3.16211V15.1786C8.78836 15.3271 13.6339 8.63961 18.4789 9.78961C13.6339 5.55611 8.78836 8.57111 3.94336 3.16211Z" fill="#E32939"/>
<path d="M3.52344 18.4181C3.24694 18.4181 3.02344 18.1946 3.02344 17.9181V3.08008C3.02344 2.80358 3.24694 2.58008 3.52344 2.58008C3.79994 2.58008 4.02344 2.80358 4.02344 3.08008V17.9181C4.02344 18.1946 3.79994 18.4181 3.52344 18.4181Z" fill="#333D4B"/>
<path d="M3.52295 4.08008C4.07523 4.08008 4.52295 3.63236 4.52295 3.08008C4.52295 2.52779 4.07523 2.08008 3.52295 2.08008C2.97066 2.08008 2.52295 2.52779 2.52295 3.08008C2.52295 3.63236 2.97066 4.08008 3.52295 4.08008Z" fill="#333D4B"/>
</g>
<defs>
<clipPath id="clip0_12178_69968">
<rect width="20" height="20" fill="white"/>
</clipPath>
</defs>
</svg>
