<svg width="80" height="81" viewBox="0 0 80 81" fill="none" xmlns="http://www.w3.org/2000/svg">
<g clip-path="url(#clip0_12178_71559)">
<path fill-rule="evenodd" clip-rule="evenodd" d="M4.10938 21.0879V63.8319C4.10938 66.8699 6.57137 69.3319 9.60938 69.3319H59.7194C62.7574 69.3319 65.2194 66.8699 65.2194 63.8319V26.5879C65.2194 23.5499 62.7574 21.0879 59.7194 21.0879H4.10938Z" fill="#FFA300"/>
<path fill-rule="evenodd" clip-rule="evenodd" d="M15.2821 35.2999L6.08015 63.3199C5.10615 66.2839 7.31415 69.3339 10.4341 69.3339H59.9041C63.0721 69.3339 65.8821 67.2999 66.8722 64.2879L76.0741 36.2679C77.0481 33.3039 74.8401 30.2539 71.7201 30.2539H22.2481C19.0801 30.2539 16.2701 32.2879 15.2801 35.2999H15.2821Z" fill="#FFC33A"/>
<path fill-rule="evenodd" clip-rule="evenodd" d="M4.10747 21.088H36.2695L28.7335 13.552C27.5275 12.346 25.8915 11.668 24.1855 11.668H9.60547C6.56747 11.668 4.10547 14.13 4.10547 17.168L4.10747 21.088Z" fill="#FFA300"/>
</g>
<defs>
<clipPath id="clip0_12178_71559">
<rect width="80" height="80" fill="white" transform="translate(0 0.5)"/>
</clipPath>
</defs>
</svg>
