<svg width="24" height="24" viewBox="0 0 24 24" fill="none" xmlns="http://www.w3.org/2000/svg">
<path d="M12 2.25C17.3848 2.25 21.75 6.61522 21.75 12C21.75 17.3848 17.3848 21.75 12 21.75C6.61522 21.75 2.25 17.3848 2.25 12C2.25 6.61522 6.61522 2.25 12 2.25ZM3.78613 12.75C4.10729 16.3128 6.69162 19.22 10.0918 20.0254C9.89617 19.7655 9.69261 19.4728 9.48926 19.1475C8.5713 17.6787 7.66249 15.5435 7.52148 12.75H3.78613ZM16.4785 12.75C16.3375 15.5435 15.4287 17.6787 14.5107 19.1475C14.3073 19.473 14.103 19.7654 13.9072 20.0254C17.3079 19.2203 19.8927 16.3131 20.2139 12.75H16.4785ZM9.02344 12.75C9.16202 15.2115 9.96332 17.0766 10.7607 18.3525C11.1999 19.0553 11.6374 19.5797 11.9609 19.9248C11.9739 19.9387 11.9874 19.9516 12 19.9648C12.0126 19.9516 12.0261 19.9387 12.0391 19.9248C12.3626 19.5797 12.8001 19.0553 13.2393 18.3525C14.0367 17.0766 14.838 15.2115 14.9766 12.75H9.02344ZM13.9072 3.97363C14.1031 4.23382 14.3071 4.52673 14.5107 4.85254C15.4287 6.32128 16.3375 8.45645 16.4785 11.25H20.2139C19.8927 7.68681 17.308 4.77868 13.9072 3.97363ZM11.9609 4.0752C11.6374 4.42026 11.1999 4.94475 10.7607 5.64746C9.96332 6.92336 9.16202 8.78849 9.02344 11.25H14.9766C14.838 8.78849 14.0367 6.92336 13.2393 5.64746C12.8001 4.94475 12.3626 4.42026 12.0391 4.0752C12.0259 4.06117 12.0128 4.04761 12 4.03418C11.9872 4.04761 11.9741 4.06117 11.9609 4.0752ZM10.0918 3.97363C6.69152 4.77899 4.1073 7.68714 3.78613 11.25H7.52148C7.66249 8.45645 8.5713 6.32128 9.48926 4.85254C9.69277 4.52692 9.89602 4.2337 10.0918 3.97363Z" fill="currentColor"/>
</svg>
