<svg width="24" height="24" viewBox="0 0 24 24" fill="none" xmlns="http://www.w3.org/2000/svg">
<path d="M12 2.25C16.2304 2.25 19.8301 4.94475 21.1797 8.71094C21.1871 8.72866 21.1922 8.74724 21.1982 8.76562C21.5542 9.77796 21.75 10.866 21.75 12C21.75 13.1326 21.5543 14.2192 21.1992 15.2305C21.1929 15.2499 21.1875 15.2694 21.1797 15.2881C19.8304 19.0547 16.2307 21.75 12 21.75C7.77209 21.75 4.17371 19.0586 2.82227 15.2959C2.8174 15.2846 2.81486 15.2723 2.81055 15.2607C2.44869 14.241 2.25 13.1438 2.25 12C2.25 10.8507 2.45028 9.74845 2.81543 8.72461C2.81819 8.71763 2.8193 8.71 2.82227 8.70312C4.17395 4.94088 7.77242 2.25 12 2.25ZM4.65234 15.75C5.73815 17.8732 7.71538 19.4625 10.0918 20.0254C9.89617 19.7655 9.69261 19.4728 9.48926 19.1475C8.93365 18.2585 8.38048 17.1254 7.99902 15.75H4.65234ZM16.001 15.75C15.6195 17.1254 15.0663 18.2585 14.5107 19.1475C14.3073 19.473 14.103 19.7654 13.9072 20.0254C16.2841 19.4627 18.2617 17.8735 19.3477 15.75H16.001ZM9.56348 15.75C9.89278 16.7922 10.3275 17.6593 10.7607 18.3525C11.1999 19.0553 11.6374 19.5797 11.9609 19.9248C11.9739 19.9387 11.9874 19.9516 12 19.9648C12.0126 19.9516 12.0261 19.9387 12.0391 19.9248C12.3626 19.5797 12.8001 19.0553 13.2393 18.3525C13.6725 17.6593 14.1072 16.7922 14.4365 15.75H9.56348ZM4.06348 9.75C3.86104 10.4655 3.75 11.2197 3.75 12C3.75 12.7803 3.86104 13.5345 4.06348 14.25H7.6748C7.56406 13.5498 7.5 12.7998 7.5 12C7.5 11.2002 7.56406 10.4502 7.6748 9.75H4.06348ZM9.19629 9.75C9.07317 10.4415 9 11.1913 9 12C9 12.8087 9.07317 13.5585 9.19629 14.25H14.8037C14.9268 13.5585 15 12.8087 15 12C15 11.1913 14.9268 10.4415 14.8037 9.75H9.19629ZM16.3252 9.75C16.4359 10.4502 16.5 11.2002 16.5 12C16.5 12.7998 16.4359 13.5498 16.3252 14.25H19.9365C20.139 13.5345 20.25 12.7803 20.25 12C20.25 11.2197 20.139 10.4655 19.9365 9.75H16.3252ZM10.0918 3.97363C7.71528 4.53651 5.73818 6.1267 4.65234 8.25H7.99902C8.38048 6.87458 8.93365 5.7415 9.48926 4.85254C9.69277 4.52692 9.89602 4.2337 10.0918 3.97363ZM11.9609 4.0752C11.6374 4.42026 11.1999 4.94475 10.7607 5.64746C10.3275 6.34065 9.89278 7.20785 9.56348 8.25H14.4365C14.1072 7.20785 13.6725 6.34065 13.2393 5.64746C12.8001 4.94475 12.3626 4.42026 12.0391 4.0752C12.0259 4.06117 12.0128 4.04761 12 4.03418C11.9872 4.04761 11.9741 4.06117 11.9609 4.0752ZM13.9072 3.97363C14.1031 4.23382 14.3071 4.52673 14.5107 4.85254C15.0663 5.7415 15.6195 6.87458 16.001 8.25H19.3477C18.2617 6.12642 16.2842 4.53631 13.9072 3.97363Z" fill="currentColor"/>
</svg>
