<svg width="24" height="24" viewBox="0 0 24 24" fill="none" xmlns="http://www.w3.org/2000/svg">
<path d="M12.4795 2.26172C13.5961 2.3167 14.6964 2.56346 15.7314 2.99219C16.9143 3.48217 17.9892 4.20016 18.8945 5.10547C19.7998 6.01078 20.5178 7.08573 21.0078 8.26855C21.4978 9.45148 21.75 10.7196 21.75 12V19.5C21.75 20.4946 21.3546 21.4481 20.6514 22.1514C19.9481 22.8546 18.9946 23.25 18 23.25H12.75C12.3358 23.25 12 22.9142 12 22.5C12 22.0858 12.3358 21.75 12.75 21.75H18C18.5967 21.75 19.1689 21.5128 19.5908 21.0908C20.0128 20.6689 20.25 20.0967 20.25 19.5H18C17.4033 19.5 16.8311 19.2628 16.4092 18.8408C15.9872 18.4189 15.75 17.8467 15.75 17.25V13.5C15.75 12.9033 15.9872 12.3311 16.4092 11.9092C16.8311 11.4872 17.4033 11.25 18 11.25H20.2148C20.1394 10.4237 19.9407 9.61195 19.6221 8.84277C19.2075 7.84186 18.6001 6.93209 17.834 6.16602C17.0679 5.39995 16.1581 4.79253 15.1572 4.37793C14.2813 4.0151 13.3502 3.80624 12.4053 3.75977L12 3.75C10.9166 3.75 9.84371 3.96333 8.84277 4.37793C7.84186 4.79253 6.93209 5.39995 6.16602 6.16602C5.39995 6.93209 4.79253 7.84186 4.37793 8.84277C4.05933 9.61195 3.86059 10.4237 3.78516 11.25H6L6.22266 11.2607C6.73764 11.3119 7.22167 11.54 7.59082 11.9092C8.01278 12.3311 8.25 12.9033 8.25 13.5V17.25C8.25 17.8467 8.01278 18.4189 7.59082 18.8408C7.16886 19.2628 6.59674 19.5 6 19.5H4.5C3.90326 19.5 3.33114 19.2628 2.90918 18.8408C2.48722 18.4189 2.25 17.8467 2.25 17.25V12C2.25 10.7196 2.5022 9.45148 2.99219 8.26855C3.48217 7.08573 4.20016 6.01078 5.10547 5.10547C6.01078 4.20016 7.08573 3.48217 8.26855 2.99219C9.45148 2.5022 10.7196 2.25 12 2.25L12.4795 2.26172ZM3.75 17.25L3.76465 17.3975C3.79352 17.5414 3.86435 17.6749 3.96973 17.7803C4.11038 17.9209 4.30109 18 4.5 18H6C6.19891 18 6.38962 17.9209 6.53027 17.7803C6.67093 17.6396 6.75 17.4489 6.75 17.25V13.5C6.75 13.3011 6.67093 13.1104 6.53027 12.9697C6.38962 12.8291 6.19891 12.75 6 12.75H3.75V17.25ZM18 12.75C17.8011 12.75 17.6104 12.8291 17.4697 12.9697C17.3291 13.1104 17.25 13.3011 17.25 13.5V17.25C17.25 17.4489 17.3291 17.6396 17.4697 17.7803C17.6104 17.9209 17.8011 18 18 18H20.25V12.75H18Z" fill="currentColor"/>
</svg>
