<svg width="24" height="24" viewBox="0 0 24 24" fill="none" xmlns="http://www.w3.org/2000/svg">
<path d="M16.6875 3.75C18.2291 3.75 19.7078 4.36209 20.7979 5.45215C21.8879 6.5422 22.5 8.02093 22.5 9.5625C22.5 11.308 21.8136 12.9412 20.8496 14.3779C19.8844 15.8164 18.6111 17.1032 17.3623 18.1719C16.1107 19.2429 14.8629 20.1127 13.9297 20.7139C13.4623 21.0149 13.0717 21.2497 12.7969 21.4102C12.6595 21.4903 12.5507 21.5517 12.4756 21.5938C12.438 21.6148 12.4089 21.6315 12.3887 21.6426C12.3786 21.6481 12.3708 21.6523 12.3652 21.6553C12.3625 21.6568 12.36 21.6583 12.3584 21.6592L12.3564 21.6602C12.3562 21.6603 12.3556 21.6604 12 21L12.3555 21.6602C12.1335 21.7797 11.8665 21.7797 11.6445 21.6602L12 21L11.6436 21.6602L11.6416 21.6592C11.64 21.6583 11.6375 21.6568 11.6348 21.6553C11.6292 21.6523 11.6214 21.6481 11.6113 21.6426C11.5911 21.6315 11.562 21.6148 11.5244 21.5938C11.4493 21.5517 11.3405 21.4903 11.2031 21.4102C10.9283 21.2497 10.5377 21.0149 10.0703 20.7139C9.13715 20.1127 7.88927 19.2429 6.6377 18.1719C5.38893 17.1032 4.11558 15.8164 3.15039 14.3779C2.18639 12.9412 1.5 11.308 1.5 9.5625C1.5 8.02093 2.11209 6.5422 3.20215 5.45215C4.2922 4.36209 5.77093 3.75 7.3125 3.75C9.21303 3.75 10.9312 4.57765 12 5.99512C13.0688 4.57765 14.787 3.75 16.6875 3.75ZM16.6875 5.25C14.8465 5.25 13.3245 6.24479 12.6943 7.78418C12.579 8.06597 12.3045 8.25 12 8.25C11.6955 8.25 11.421 8.06597 11.3057 7.78418C10.6755 6.24479 9.15346 5.25 7.3125 5.25C6.16875 5.25 5.07145 5.70394 4.2627 6.5127C3.45394 7.32145 3 8.41875 3 9.5625C3 10.9107 3.53237 12.2541 4.39648 13.542C5.25932 14.8279 6.42374 16.0141 7.6123 17.0312C8.79804 18.046 9.98797 18.8757 10.8828 19.4521C11.3293 19.7398 11.7006 19.9634 11.959 20.1143C11.9728 20.1223 11.9868 20.13 12 20.1377C12.0132 20.13 12.0272 20.1223 12.041 20.1143C12.2994 19.9634 12.6707 19.7398 13.1172 19.4521C14.012 18.8757 15.202 18.046 16.3877 17.0312C17.5763 16.0141 18.7407 14.8279 19.6035 13.542C20.4676 12.2541 21 10.9107 21 9.5625C21 8.41875 20.5461 7.32145 19.7373 6.5127C18.9286 5.70394 17.8312 5.25 16.6875 5.25Z" fill="currentColor"/>
</svg>
