<svg width="24" height="24" viewBox="0 0 24 24" fill="none" xmlns="http://www.w3.org/2000/svg">
<path d="M12.1475 2.25586C12.2939 2.27032 12.4378 2.30676 12.5742 2.36328C12.7562 2.43872 12.9223 2.54915 13.0615 2.68848L20.5605 10.1885H20.5615C20.7006 10.3277 20.8105 10.4939 20.8857 10.6758C20.961 10.8577 21.0001 11.0532 21 11.25V20.25C20.9998 20.664 20.6641 21 20.25 21H14.25C13.8359 21 13.5002 20.664 13.5 20.25V15H10.5V20.25C10.4998 20.664 10.1641 21 9.75 21H3.75C3.33592 21 3.00021 20.664 3 20.25V11.25C2.99992 11.0532 3.03905 10.8577 3.11426 10.6758C3.18953 10.4939 3.29938 10.3277 3.43848 10.1885H3.43945L10.9385 2.68945C11.0777 2.55007 11.2438 2.43873 11.4258 2.36328C11.6078 2.28788 11.803 2.24902 12 2.24902L12.1475 2.25586ZM4.5 11.249V19.5H9V14.25C9.0002 13.836 9.33591 13.5 9.75 13.5H14.25C14.6641 13.5 14.9998 13.836 15 14.25V19.5H19.5V11.249L12 3.74902L4.5 11.249Z" fill="currentColor"/>
</svg>
