<svg width="24" height="24" viewBox="0 0 24 24" fill="none" xmlns="http://www.w3.org/2000/svg">
<path d="M10.7197 3.96979C11.0126 3.67689 11.4874 3.67689 11.7803 3.96979C12.0731 4.26269 12.0731 4.73746 11.7803 5.03033L4.81055 12.0001L11.7803 18.9698L11.832 19.0264C12.0723 19.321 12.0549 19.7558 11.7803 20.0303C11.5057 20.3049 11.0709 20.3223 10.7764 20.0821L10.7197 20.0303L3.21973 12.5303C2.92683 12.2374 2.92683 11.7627 3.21973 11.4698L10.7197 3.96979ZM18.2197 3.96979C18.5126 3.67689 18.9874 3.67689 19.2803 3.96979C19.5731 4.26269 19.5731 4.73746 19.2803 5.03033L12.3105 12.0001L19.2803 18.9698L19.332 19.0264C19.5723 19.321 19.5549 19.7558 19.2803 20.0303C19.0057 20.3049 18.5709 20.3223 18.2764 20.0821L18.2197 20.0303L10.7197 12.5303C10.4268 12.2374 10.4268 11.7627 10.7197 11.4698L18.2197 3.96979Z" fill="currentColor"/>
</svg>
