<svg width="24" height="24" viewBox="0 0 24 24" fill="none" xmlns="http://www.w3.org/2000/svg">
<path d="M12 0.75C14.0924 0.75 15.945 2.18469 16.4414 4.1582L16.4854 4.35059L16.4961 4.42676C16.5337 4.80497 16.2799 5.15804 15.8994 5.23535C15.5189 5.31267 15.1471 5.08663 15.0342 4.72363L15.0146 4.64941L14.9521 4.39941C14.5807 3.17059 13.3765 2.25 12 2.25C11.2044 2.25 10.4415 2.5663 9.87891 3.12891C9.3163 3.69152 9 4.45435 9 5.25V7.5H19.5C20.3284 7.5 21 8.17157 21 9V19.5C21 20.3284 20.3284 21 19.5 21H4.5C3.67157 21 3 20.3284 3 19.5V9C3 8.17157 3.67157 7.5 4.5 7.5H7.5V5.25C7.5 4.05653 7.97445 2.91227 8.81836 2.06836C9.66227 1.22445 10.8065 0.75 12 0.75ZM4.5 19.5H19.5V9H4.5V19.5Z" fill="currentColor"/>
</svg>
