<svg width="24" height="24" viewBox="0 0 24 24" fill="none" xmlns="http://www.w3.org/2000/svg">
<path d="M12 0.75C13.1935 0.75 14.3377 1.22445 15.1816 2.06836C16.0256 2.91227 16.5 4.05653 16.5 5.25V7.5H19.5C20.3284 7.5 21 8.17157 21 9V19.5C21 20.3284 20.3284 21 19.5 21H4.5C3.67157 21 3 20.3284 3 19.5V9C3 8.17157 3.67157 7.5 4.5 7.5H7.5V5.25C7.5 4.05653 7.97445 2.91227 8.81836 2.06836C9.66227 1.22445 10.8065 0.75 12 0.75ZM4.5 19.5H19.5V9H4.5V19.5ZM12 2.25C11.2044 2.25 10.4415 2.5663 9.87891 3.12891C9.3163 3.69152 9 4.45435 9 5.25V7.5H15V5.25C15 4.45435 14.6837 3.69152 14.1211 3.12891C13.5585 2.5663 12.7956 2.25 12 2.25Z" fill="currentColor"/>
</svg>
