<svg width="20" height="20" viewBox="0 0 20 20" fill="none" xmlns="http://www.w3.org/2000/svg">
<g clip-path="url(#clip0_12178_71599)">
<path d="M1.34499 16.5642C1.12849 16.7807 1.12849 17.1312 1.34499 17.3477L2.30499 18.3077C2.52149 18.5242 2.87199 18.5242 3.08849 18.3077L12.1605 9.23569L10.417 7.49219L1.34499 16.5642Z" fill="#3D3D3D"/>
<path d="M14.589 6.07578L13.5745 5.06128C13.373 4.85978 13.047 4.85978 12.8455 5.06128L10.417 7.48978L12.1605 9.23328L14.589 6.80478C14.7905 6.60328 14.7905 6.27728 14.589 6.07578Z" fill="#D5D5D5"/>
<path d="M19.6652 4.15141C19.6652 4.25141 19.6002 4.33641 19.5002 4.35641L18.0402 4.68641C17.6802 4.76641 17.3902 5.13641 17.3252 5.60641L17.0602 7.42641C17.0452 7.53141 16.9552 7.61141 16.8502 7.61141C16.7452 7.61141 16.6552 7.53141 16.6402 7.42641L16.3802 5.60641C16.3102 5.13641 16.0252 4.76641 15.6602 4.68641L14.2002 4.35641C14.1002 4.33641 14.0352 4.25141 14.0352 4.15141C14.0352 4.05141 14.1002 3.96641 14.2002 3.94641L15.6602 3.61641C16.0252 3.53641 16.3102 3.16641 16.3802 2.69641L16.6402 0.871406C16.6552 0.771406 16.7452 0.691406 16.8502 0.691406C16.9552 0.691406 17.0452 0.771406 17.0602 0.871406L17.3252 2.69641C17.3902 3.16641 17.6802 3.53641 18.0402 3.61641L19.5052 3.94641C19.6002 3.96641 19.6652 4.05141 19.6652 4.15141Z" fill="#4A90E2"/>
<path d="M16.5401 11.3355C16.5401 11.4355 16.4751 11.5205 16.3751 11.5405L15.3551 11.7705C15.1251 11.8205 14.9451 12.0605 14.9001 12.3605L14.7151 13.6355C14.7001 13.7405 14.6151 13.8155 14.5101 13.8155C14.4051 13.8155 14.3151 13.7405 14.3001 13.6355L14.1151 12.3605C14.0701 12.0605 13.8901 11.8205 13.6651 11.7705L12.6401 11.5405C12.5401 11.5205 12.4751 11.4355 12.4751 11.3355C12.4751 11.2355 12.5401 11.1505 12.6401 11.1305L13.6651 10.9005C13.8901 10.8505 14.0701 10.6105 14.1151 10.3105L14.3001 9.03547C14.3151 8.93047 14.4051 8.85547 14.5101 8.85547C14.6151 8.85547 14.7001 8.93047 14.7151 9.03547L14.9001 10.3105C14.9451 10.6105 15.1251 10.8505 15.3551 10.9005L16.3751 11.1305C16.4751 11.1505 16.5401 11.2355 16.5401 11.3355Z" fill="#4A90E2"/>
<path d="M10.7004 3.525C10.7004 3.625 10.6304 3.71 10.5354 3.735L9.71535 3.915C9.55035 3.955 9.42035 4.13 9.38535 4.355L9.24035 5.375C9.22535 5.48 9.13535 5.555 9.03035 5.555C8.92535 5.555 8.83535 5.48 8.82035 5.375L8.67535 4.355C8.64035 4.13 8.51035 3.955 8.34535 3.915L7.52535 3.735C7.43035 3.71 7.36035 3.625 7.36035 3.525C7.36035 3.43 7.43035 3.345 7.52535 3.32L8.34535 3.14C8.51035 3.1 8.64035 2.925 8.67535 2.7L8.82035 1.68C8.83535 1.575 8.92535 1.5 9.03035 1.5C9.13535 1.5 9.22535 1.575 9.24035 1.68L9.38535 2.7C9.42035 2.925 9.55035 3.1 9.71535 3.14L10.5354 3.32C10.6304 3.345 10.7004 3.43 10.7004 3.525Z" fill="#4A90E2"/>
</g>
<defs>
<clipPath id="clip0_12178_71599">
<rect width="20" height="20" fill="white"/>
</clipPath>
</defs>
</svg>
