<svg width="24" height="24" viewBox="0 0 24 24" fill="none" xmlns="http://www.w3.org/2000/svg">
<path d="M10.5 2.25C15.0563 2.25 18.75 5.94365 18.75 10.5C18.75 12.5081 18.0314 14.3477 16.8389 15.7783L21.5303 20.4697C21.823 20.7626 21.8231 21.2374 21.5303 21.5303C21.2374 21.823 20.7626 21.823 20.4697 21.5303L15.7783 16.8389C14.3477 18.0314 12.5081 18.75 10.5 18.75C5.94365 18.75 2.25 15.0563 2.25 10.5C2.25 5.94365 5.94365 2.25 10.5 2.25ZM10.5 3.75C6.77208 3.75 3.75 6.77208 3.75 10.5C3.75 14.2279 6.77208 17.25 10.5 17.25C14.2279 17.25 17.25 14.2279 17.25 10.5C17.25 6.77208 14.2279 3.75 10.5 3.75Z" fill="currentColor"/>
</svg>
