<svg width="24" height="24" viewBox="0 0 24 24" fill="none" xmlns="http://www.w3.org/2000/svg">
<path d="M12 2.25C17.3848 2.25 21.75 6.61522 21.75 12C21.75 17.3848 17.3848 21.75 12 21.75C6.61522 21.75 2.25 17.3848 2.25 12C2.25 6.61522 6.61522 2.25 12 2.25ZM12 3.75C7.44365 3.75 3.75 7.44365 3.75 12C3.75 16.5563 7.44365 20.25 12 20.25C16.5563 20.25 20.25 16.5563 20.25 12C20.25 7.44365 16.5563 3.75 12 3.75ZM12 16C12.5523 16 13 16.4477 13 17C13 17.5523 12.5523 18 12 18C11.4477 18 11 17.5523 11 17C11 16.4477 11.4477 16 12 16ZM12 6.75C13.9736 6.75 15.75 8.17049 15.75 10.125C15.75 11.8275 14.402 13.1245 12.75 13.4307V14C12.75 14.4142 12.4142 14.75 12 14.75C11.5858 14.75 11.25 14.4142 11.25 14V12.75C11.25 12.3358 11.5858 12 12 12C13.3395 12 14.25 11.0692 14.25 10.125C14.25 9.18076 13.3395 8.25 12 8.25C10.6605 8.25 9.75 9.18076 9.75 10.125V10.5C9.75 10.9142 9.41421 11.25 9 11.25C8.58579 11.25 8.25 10.9142 8.25 10.5V10.125C8.25 8.17049 10.0264 6.75 12 6.75Z" fill="currentColor"/>
</svg>
