<svg width="24" height="24" viewBox="0 0 24 24" fill="none" xmlns="http://www.w3.org/2000/svg">
<path d="M16.5 1.5C18.5711 1.5 20.25 3.17893 20.25 5.25C20.25 7.32107 18.5711 9 16.5 9C15.4473 9 14.4965 8.5657 13.8154 7.86719L9.49609 10.6436C9.65946 11.0643 9.75 11.5215 9.75 12C9.75 12.4782 9.65925 12.9349 9.49609 13.3555L13.8154 16.1318C14.4965 15.4336 15.4476 15 16.5 15C18.5711 15 20.25 16.6789 20.25 18.75C20.25 20.8211 18.5711 22.5 16.5 22.5C14.4289 22.5 12.75 20.8211 12.75 18.75C12.75 18.2715 12.8405 17.8143 13.0039 17.3936L8.68359 14.6162C8.0025 15.3147 7.05268 15.75 6 15.75C3.92893 15.75 2.25 14.0711 2.25 12C2.25 9.92893 3.92893 8.25 6 8.25C7.05243 8.25 8.00253 8.68458 8.68359 9.38281L13.0039 6.60547C12.8408 6.18494 12.75 5.72817 12.75 5.25C12.75 3.17893 14.4289 1.5 16.5 1.5ZM16.5 16.5C15.2574 16.5 14.25 17.5074 14.25 18.75C14.25 19.9926 15.2574 21 16.5 21C17.7426 21 18.75 19.9926 18.75 18.75C18.75 17.5074 17.7426 16.5 16.5 16.5ZM6 9.75C4.75736 9.75 3.75 10.7574 3.75 12C3.75 13.2426 4.75736 14.25 6 14.25C7.24264 14.25 8.25 13.2426 8.25 12C8.25 10.7574 7.24264 9.75 6 9.75ZM16.5 3C15.2574 3 14.25 4.00736 14.25 5.25C14.25 6.49264 15.2574 7.5 16.5 7.5C17.7426 7.5 18.75 6.49264 18.75 5.25C18.75 4.00736 17.7426 3 16.5 3Z" fill="currentColor"/>
</svg>
