<svg width="24" height="24" viewBox="0 0 24 24" fill="none" xmlns="http://www.w3.org/2000/svg">
<path d="M11.999 1.5C12.3037 1.50001 12.6016 1.59082 12.8545 1.76074C13.1065 1.93008 13.3027 2.17036 13.418 2.45117L15.5498 7.61426L21.085 8.06543H21.0947C21.3948 8.09367 21.6799 8.20999 21.915 8.39844C22.15 8.5868 22.325 8.83952 22.418 9.12598C22.5109 9.41269 22.5184 9.72112 22.4385 10.0117C22.3586 10.3021 22.195 10.5629 21.9688 10.7617L21.9629 10.7666L17.7422 14.4062L19.0312 19.8447L19.0547 19.9561C19.0982 20.217 19.0735 20.4856 18.9824 20.7354C18.8783 21.0209 18.6915 21.2696 18.4463 21.4492C18.2011 21.6288 17.9081 21.7319 17.6045 21.7451C17.301 21.7583 17 21.681 16.7402 21.5234L16.7363 21.5205L11.999 18.6074L7.26172 21.5205L7.25781 21.5234C6.99808 21.681 6.69706 21.7583 6.39355 21.7451C6.08996 21.7319 5.79692 21.6288 5.55176 21.4492C5.30654 21.2696 5.11979 21.0209 5.01562 20.7354C4.91158 20.4499 4.89485 20.1399 4.9668 19.8447L6.25488 14.4102L2.03516 10.7705H2.03418C1.80473 10.5723 1.63937 10.3105 1.55762 10.0186C1.47585 9.7265 1.481 9.41653 1.57422 9.12793C1.66746 8.83943 1.84397 8.5845 2.08105 8.39551C2.31819 8.20652 2.60613 8.09195 2.9082 8.06543H2.91309L8.44727 7.61426L10.5801 2.45117C10.6954 2.17036 10.8916 1.93009 11.1436 1.76074C11.3964 1.59083 11.6944 1.50001 11.999 1.5ZM11.9805 3.00586C11.975 3.00951 11.9703 3.01448 11.9678 3.02051L11.9668 3.02344L9.6582 8.61133C9.55073 8.87146 9.30687 9.04933 9.02637 9.07227L3.03711 9.55957C3.02949 9.56063 3.02264 9.56453 3.0166 9.56934C3.00998 9.57462 3.00456 9.58178 3.00195 9.58984C2.99949 9.59778 2.99971 9.60625 3.00195 9.61426C3.00413 9.62197 3.00778 9.62936 3.01367 9.63477L7.58008 13.5723C7.79208 13.7551 7.88491 14.0411 7.82031 14.3135L6.4248 20.1953L6.42383 20.2002C6.42217 20.2073 6.42232 20.2148 6.4248 20.2217C6.42735 20.2286 6.4325 20.2349 6.43848 20.2393C6.4444 20.2435 6.4517 20.2458 6.45898 20.2461C6.46614 20.2464 6.47333 20.2448 6.47949 20.2412L11.6064 17.0879L11.6992 17.04C11.922 16.9428 12.1808 16.9585 12.3916 17.0879L17.5186 20.2412L17.5391 20.2461C17.5463 20.2458 17.5537 20.2435 17.5596 20.2393C17.5655 20.2349 17.5707 20.2286 17.5732 20.2217C17.5757 20.2148 17.5759 20.2073 17.5742 20.2002L17.5732 20.1953L16.1777 14.3086C16.1132 14.0362 16.206 13.7502 16.418 13.5674L20.9785 9.63281C20.9844 9.62736 20.9901 9.62102 20.9922 9.61328C20.9943 9.6053 20.9938 9.59673 20.9912 9.58887C20.9886 9.58095 20.984 9.57361 20.9775 9.56836C20.971 9.5631 20.9625 9.56036 20.9541 9.55957L14.9717 9.07227C14.6912 9.04932 14.4473 8.87145 14.3398 8.61133L12.0312 3.02344L12.0303 3.02148V3.02051C12.0277 3.0145 12.023 3.00951 12.0176 3.00586C12.0121 3.0022 12.0056 3.00001 11.999 3C11.9924 3.00001 11.986 3.00218 11.9805 3.00586Z" fill="currentColor"/>
</svg>
