<svg width="24" height="24" viewBox="0 0 24 24" fill="none" xmlns="http://www.w3.org/2000/svg">
<path d="M20.25 12.75C20.6642 12.75 21 13.0858 21 13.5V19.5C21 19.9142 20.6642 20.25 20.25 20.25H3.75C3.33579 20.25 3 19.9142 3 19.5V13.5C3 13.0858 3.33579 12.75 3.75 12.75C4.16421 12.75 4.5 13.0858 4.5 13.5V18.75H19.5V13.5C19.5 13.0858 19.8358 12.75 20.25 12.75ZM12.0254 2.25098C12.0319 2.2512 12.0384 2.25156 12.0449 2.25195C12.0839 2.25426 12.122 2.25954 12.1592 2.26758C12.1925 2.2748 12.2246 2.28607 12.2568 2.29785C12.2693 2.30242 12.2828 2.30437 12.2949 2.30957C12.314 2.31772 12.3311 2.33004 12.3496 2.33984C12.3734 2.35248 12.3977 2.36387 12.4199 2.37891C12.4588 2.40524 12.4959 2.43532 12.5303 2.46973L16.2803 6.21973L16.332 6.27637C16.5723 6.57095 16.5549 7.00567 16.2803 7.28027C16.0057 7.55488 15.5709 7.57234 15.2764 7.33203L15.2197 7.28027L12.75 4.81055V13.5C12.75 13.9142 12.4142 14.25 12 14.25C11.5858 14.25 11.25 13.9142 11.25 13.5V4.81055L8.78027 7.28027C8.48738 7.57317 8.01262 7.57317 7.71973 7.28027C7.42683 6.98738 7.42683 6.51262 7.71973 6.21973L11.4697 2.46973L11.5264 2.41797C11.5366 2.40965 11.5481 2.40321 11.5586 2.39551C11.5741 2.38414 11.59 2.37345 11.6064 2.36328C11.6303 2.34849 11.6546 2.3351 11.6797 2.32324C11.6979 2.31462 11.7164 2.30697 11.7354 2.2998C11.7629 2.28942 11.7909 2.28144 11.8193 2.27441C11.8394 2.26944 11.8592 2.26309 11.8799 2.25977C11.8909 2.25799 11.902 2.25616 11.9131 2.25488C11.9416 2.25159 11.9706 2.25 12 2.25C12.0085 2.25 12.017 2.2507 12.0254 2.25098Z" fill="currentColor"/>
</svg>
