<svg width="24" height="24" viewBox="0 0 24 24" fill="none" xmlns="http://www.w3.org/2000/svg">
<path d="M12.0002 2.25C15.7282 2.25 18.7502 5.27208 18.7502 9C18.7502 11.465 17.4283 13.6197 15.4553 14.7979C17.9782 15.6252 20.0806 17.3369 21.4631 19.5635L21.6497 19.874L21.6848 19.9424C21.841 20.2889 21.7123 20.7049 21.3762 20.8994C21.0402 21.0937 20.6155 20.9983 20.3928 20.6904L20.3508 20.626L20.1887 20.3545C18.4681 17.5829 15.4874 15.75 12.0002 15.75C8.40073 15.7501 5.34104 17.7034 3.64965 20.626C3.4421 20.9843 2.98268 21.1068 2.62426 20.8994C2.26612 20.6919 2.14356 20.2324 2.35083 19.874C3.72687 17.4964 5.90629 15.6634 8.54516 14.7979C6.57248 13.6196 5.25024 11.4648 5.25024 9C5.25024 5.27221 8.2725 2.25021 12.0002 2.25ZM12.0002 3.75C9.10092 3.75021 6.75024 6.10063 6.75024 9C6.75024 11.8994 9.10092 14.2498 12.0002 14.25C14.8997 14.25 17.2502 11.8995 17.2502 9C17.2502 6.1005 14.8997 3.75 12.0002 3.75Z" fill="currentColor"/>
</svg>
