<svg width="80" height="80" viewBox="0 0 80 80" fill="none" xmlns="http://www.w3.org/2000/svg">
<g clip-path="url(#clip0_12178_66127)">
<path d="M71.2501 23.0881C68.0541 22.2321 64.7701 24.1281 63.9141 27.3241L59.9401 36.0201L55.8841 28.9961L45.0401 8.60212V8.59812C43.6861 6.05212 40.5721 5.06212 38.0821 6.38612C35.5921 7.71012 34.6701 10.8461 36.0241 13.3921L45.3541 30.9401L43.1161 32.2321L30.9261 12.7241C29.3981 10.2801 26.2221 9.51012 23.8301 11.0041C21.4381 12.4981 20.7381 15.6921 22.2661 18.1361L34.3381 37.4541L32.6901 39.0761L19.9861 23.9361C18.1701 21.7721 14.9481 21.4881 12.7881 23.3001C10.6281 25.1121 10.3481 28.3361 12.1641 30.5001L25.3901 46.2621L23.3721 48.2481L13.1541 37.6681C11.1461 35.5881 7.87206 35.4901 5.84406 37.4481C3.81606 39.4061 3.80006 42.6801 5.80806 44.7601L25.0261 64.6601L25.0581 64.6201C32.5761 74.2561 46.2161 77.1481 57.1021 70.8641C63.0561 67.4261 67.0541 61.9001 68.7021 55.7461L75.4861 30.4261C76.3421 27.2301 74.4461 23.9461 71.2501 23.0901V23.0881Z" fill="#FFCCA8"/>
<path d="M61.8726 20.398C61.0446 20.398 60.3726 19.726 60.3726 18.898C60.3726 14.82 57.0546 11.502 52.9766 11.502C52.1486 11.502 51.4766 10.83 51.4766 10.002C51.4766 9.17395 52.1486 8.50195 52.9766 8.50195C58.7086 8.50195 63.3726 13.166 63.3726 18.898C63.3726 19.726 62.7006 20.398 61.8726 20.398Z" fill="#CECFCF"/>
<path d="M67.6809 19.5657C66.8529 19.5657 66.1809 18.8937 66.1809 18.0657C66.1809 11.4657 60.8109 6.0957 54.2109 6.0957C53.3829 6.0957 52.7109 5.4237 52.7109 4.5957C52.7109 3.7677 53.3829 3.0957 54.2109 3.0957C62.4649 3.0957 69.1809 9.8117 69.1809 18.0657C69.1809 18.8937 68.5089 19.5657 67.6809 19.5657Z" fill="#CECFCF"/>
<path d="M57.9862 38.9688L53.3062 41.6707C49.4802 43.8807 48.1682 48.7727 50.3782 52.5987L51.4922 54.5287C52.3122 48.9207 54.5102 43.5468 57.9862 38.9688Z" fill="#E68E51"/>
</g>
<defs>
<clipPath id="clip0_12178_66127">
<rect width="80" height="80" fill="white"/>
</clipPath>
</defs>
</svg>
