<svg width="24" height="24" viewBox="0 0 24 24" fill="none" xmlns="http://www.w3.org/2000/svg">
<path d="M18.2197 4.71979C18.5126 4.42689 18.9874 4.42689 19.2803 4.71979C19.5731 5.01269 19.5731 5.48746 19.2803 5.78033L13.0605 12.0001L19.2803 18.2198L19.332 18.2764C19.5723 18.571 19.5549 19.0058 19.2803 19.2803C19.0057 19.5549 18.5709 19.5723 18.2764 19.3321L18.2197 19.2803L12 13.0606L5.78027 19.2803C5.4874 19.5732 5.01262 19.5732 4.71973 19.2803C4.42683 18.9874 4.42683 18.5127 4.71973 18.2198L10.9395 12.0001L4.71973 5.78033C4.42683 5.48744 4.42683 5.01268 4.71973 4.71979C5.01262 4.42689 5.48738 4.42689 5.78027 4.71979L12 10.9395L18.2197 4.71979Z" fill="currentColor"/>
</svg>
