<svg width="300" height="55" viewBox="0 0 300 55" fill="none" xmlns="http://www.w3.org/2000/svg">
<g clip-path="url(#clip0_13420_7056)">
<path d="M119.326 42.484C110.724 42.484 103.729 35.532 103.729 26.983C103.729 18.4339 110.724 11.4819 119.326 11.4819C127.928 11.4819 134.923 18.4339 134.923 26.983C134.923 35.532 127.928 42.484 119.326 42.484ZM119.326 18.1312C114.421 18.1312 110.419 22.0978 110.419 26.983C110.419 31.8682 114.41 35.8348 119.326 35.8348C124.241 35.8348 128.232 31.8682 128.232 26.983C128.232 22.0978 124.241 18.1312 119.326 18.1312Z" fill="currentColor"/>
<path d="M86.3354 42.484C77.7334 42.484 70.7383 35.532 70.7383 26.983C70.7383 18.4339 77.7334 11.4819 86.3354 11.4819C94.9375 11.4819 101.933 18.4339 101.933 26.983C101.933 35.532 94.9375 42.484 86.3354 42.484ZM86.3354 18.1312C81.4305 18.1312 77.4288 22.0978 77.4288 26.983C77.4288 31.8682 81.42 35.8348 86.3354 35.8348C91.2509 35.8348 95.2421 31.8682 95.2421 26.983C95.2421 22.0978 91.2509 18.1312 86.3354 18.1312Z" fill="currentColor"/>
<path d="M74.0783 49.3315C72.2298 49.3315 70.7278 47.8388 70.7278 46.0017V26.9724C70.7278 25.1353 72.2298 23.6426 74.0783 23.6426C75.9269 23.6426 77.4288 25.1353 77.4288 26.9724V46.0017C77.4288 47.8388 75.9269 49.3315 74.0783 49.3315Z" fill="currentColor"/>
<path d="M185.411 42.484C176.809 42.484 169.814 35.532 169.814 26.983C169.814 18.4339 176.809 11.4819 185.411 11.4819C194.013 11.4819 201.008 18.4339 201.008 26.983C201.008 35.532 194.013 42.484 185.411 42.484ZM185.411 18.1312C180.506 18.1312 176.505 22.0978 176.505 26.983C176.505 31.8682 180.496 35.8348 185.411 35.8348C190.327 35.8348 194.318 31.8682 194.318 26.983C194.318 22.0978 190.327 18.1312 185.411 18.1312Z" fill="currentColor"/>
<path d="M251.402 42.484C242.8 42.484 235.805 35.532 235.805 26.983C235.805 18.4339 242.8 11.4819 251.402 11.4819C260.004 11.4819 266.999 18.4339 266.999 26.983C266.999 35.532 260.004 42.484 251.402 42.484ZM251.402 18.1312C246.497 18.1312 242.496 22.0978 242.496 26.983C242.496 31.8682 246.487 35.8348 251.402 35.8348C256.318 35.8348 260.309 31.8682 260.309 26.983C260.309 22.0978 256.318 18.1312 251.402 18.1312Z" fill="currentColor"/>
<path d="M284.403 42.484C275.801 42.484 268.806 35.532 268.806 26.983V14.8118C268.806 12.9746 270.308 11.4819 272.156 11.4819C274.005 11.4819 275.507 12.9746 275.507 14.8118V26.983C275.507 31.8577 279.498 35.8348 284.413 35.8348C289.329 35.8348 293.32 31.8682 293.32 26.983V14.8118C293.32 12.9746 294.822 11.4819 296.671 11.4819C298.519 11.4819 300.021 12.9746 300.021 14.8118V26.983C300.021 35.532 293.026 42.484 284.424 42.484H284.403Z" fill="currentColor"/>
<path d="M152.41 42.484C143.808 42.484 136.813 35.532 136.813 26.983C136.813 18.4339 143.808 11.4819 152.41 11.4819C161.012 11.4819 168.008 18.4339 168.008 26.983C168.008 35.532 161.012 42.484 152.41 42.484ZM152.41 18.1312C147.506 18.1312 143.504 22.0978 143.504 26.983C143.504 31.8682 147.495 35.8348 152.41 35.8348C157.326 35.8348 161.317 31.8682 161.317 26.983C161.317 22.0978 157.326 18.1312 152.41 18.1312Z" fill="currentColor"/>
<path d="M140.164 49.3315C138.315 49.3315 136.813 47.8388 136.813 46.0017V26.9724C136.813 25.1353 138.315 23.6426 140.164 23.6426C142.012 23.6426 143.514 25.1353 143.514 26.9724V46.0017C143.514 47.8388 142.012 49.3315 140.164 49.3315Z" fill="currentColor"/>
<path d="M218.401 42.484C209.799 42.484 202.804 35.532 202.804 26.983C202.804 18.4339 209.799 11.4819 218.401 11.4819C227.003 11.4819 233.999 18.4339 233.999 26.983C233.999 35.532 227.003 42.484 218.401 42.484ZM218.401 18.1312C213.496 18.1312 209.495 22.0978 209.495 26.983C209.495 31.8682 213.486 35.8348 218.401 35.8348C223.317 35.8348 227.308 31.8682 227.308 26.983C227.308 22.0978 223.317 18.1312 218.401 18.1312Z" fill="currentColor"/>
<path d="M230.659 30.3025C228.81 30.3025 227.308 28.8098 227.308 26.9727V7.95388C227.308 6.11672 228.81 4.62402 230.659 4.62402C232.507 4.62402 234.009 6.11672 234.009 7.95388V26.9831C234.009 28.8203 232.507 30.313 230.659 30.313V30.3025Z" fill="currentColor"/>
<path d="M27.6652 50.282C33.9985 56.5764 44.2601 56.5764 50.5829 50.282C56.9163 43.9876 56.9163 33.7893 50.5829 27.5054L27.6652 50.282Z" fill="currentColor"/>
<path d="M4.74758 4.71833C-1.58578 11.0127 -1.58578 21.211 4.74758 27.495L27.6653 4.71833C21.3425 -1.57603 11.081 -1.57603 4.74758 4.71833Z" fill="currentColor"/>
<path d="M4.7474 50.2817C11.0808 56.576 21.3423 56.576 27.6652 50.2817L4.7474 27.4946C-1.58597 33.789 -1.58597 43.9873 4.7474 50.2712V50.2817Z" fill="currentColor"/>
<path d="M50.5934 4.71833C44.26 -1.57603 33.9985 -1.57603 27.6757 4.71833L50.5934 27.495C56.9268 21.2006 56.9268 11.0023 50.5934 4.71833Z" fill="currentColor"/>
</g>
<defs>
<clipPath id="clip0_13420_7056">
<rect width="300" height="55" fill="currentColor"/>
</clipPath>
</defs>
</svg>
